<?xml version="1.0" standalone="no"?>
<!DOCTYPE svg PUBLIC "-//W3C//DTD SVG 20010904//EN"
 "http://www.w3.org/TR/2001/REC-SVG-20010904/DTD/svg10.dtd">
<svg version="1.0" xmlns="http://www.w3.org/2000/svg"
 width="260.000000pt" height="260.000000pt" viewBox="0 0 260.000000 260.000000"
 preserveAspectRatio="xMidYMid meet">
<metadata>
Created by potrace 1.14, written by Peter Selinger 2001-2017
</metadata>
<g transform="translate(0.000000,260.000000) scale(0.100000,-0.100000)"
fill="#000000" stroke="none">
<path d="M953 2355 c-302 -84 -556 -326 -661 -627 -34 -96 -36 -112 -37 -223
0 -116 1 -123 32 -186 132 -268 551 -191 1008 186 142 117 192 192 160 241
l-16 25 -77 -70 c-314 -285 -619 -447 -804 -427 -97 10 -143 46 -167 131 -32
116 19 320 119 478 61 97 218 243 317 295 105 55 184 75 235 62 21 -6 38 -15
38 -19 0 -5 -20 -31 -43 -57 -72 -80 -81 -110 -47 -144 47 -47 107 -10 170
104 22 39 40 80 40 92 0 31 -55 111 -90 129 -44 23 -117 27 -177 10z"/>
<path d="M2330 1697 c-47 -23 -63 -76 -71 -244 -9 -176 -21 -213 -90 -288
-113 -123 -360 -245 -493 -245 -26 0 -39 6 -50 23 -23 36 -38 132 -31 195 11
85 70 259 112 327 43 71 48 120 16 162 -16 22 -28 28 -56 27 -80 -3 -103 -40
-171 -276 -75 -259 -85 -422 -34 -523 90 -174 220 -156 618 84 73 45 137 81
142 81 4 0 5 -28 2 -62 -30 -330 -149 -625 -278 -688 -54 -26 -129 -26 -230 0
-105 27 -165 61 -236 136 -62 67 -79 71 -99 28 -28 -62 5 -130 97 -197 111
-82 253 -129 392 -130 73 -1 94 3 145 27 75 34 126 82 176 169 127 215 194
495 234 972 18 209 22 358 11 392 -6 20 -15 25 -66 39 -8 2 -26 -2 -40 -9z"/>
</g>
</svg>
